<?xml version="1.0" encoding="iso-8859-1"?>
<!-- Generator: Adobe Illustrator 17.1.0, SVG Export Plug-In . SVG Version: 6.00 Build 0)  -->
<!DOCTYPE svg PUBLIC "-//W3C//DTD SVG 1.1//EN" "http://www.w3.org/Graphics/SVG/1.1/DTD/svg11.dtd">
<svg version="1.1" id="Capa_1" xmlns="http://www.w3.org/2000/svg" xmlns:xlink="http://www.w3.org/1999/xlink" x="0px" y="0px"
	 viewBox="0 0 334.642 334.642" style="enable-background:new 0 0 334.642 334.642;" xml:space="preserve">
<path d="M334.642,115.724c0-27.178-13.531-39.592-24.881-45.221c-11.924-5.913-25.22-6.408-37.815-6.408l-0.237,0V58.48
	c0-7.334-4.384-21.204-20.975-21.204H20.819C4.351,37.276,0,50.812,0,57.97v85.408c0,39.506,10.89,72.672,31.492,95.912
	c4.634,5.227,9.727,9.938,15.257,14.146c-2.513,4.317-3.961,9.327-3.961,14.672c0,16.133,13.125,29.258,29.258,29.258h127.615
	c16.133,0,29.258-13.125,29.258-29.258c0-5.58-1.572-10.799-4.294-15.241c5.251-4.056,10.122-8.575,14.606-13.558
	c7.214-8.016,13.27-17.138,18.127-27.219C287.598,206.551,334.642,170.205,334.642,115.724z M270.027,168.745
	c1.113-8.13,1.681-16.597,1.681-25.367V99.096l0.237,0c24.976,0,27.697,3.366,27.697,16.628
	C299.642,140.542,284.174,158.682,270.027,168.745z"/>
<g>
</g>
<g>
</g>
<g>
</g>
<g>
</g>
<g>
</g>
<g>
</g>
<g>
</g>
<g>
</g>
<g>
</g>
<g>
</g>
<g>
</g>
<g>
</g>
<g>
</g>
<g>
</g>
<g>
</g>
</svg>
