<svg fill="none" height="24" viewBox="0 0 24 24" width="24" xmlns="http://www.w3.org/2000/svg"><circle cx="12" cy="12" fill="#fff" r="12"/><path clip-rule="evenodd" d="m18.7133 15.6436c-3.2136-.0035-5.3779-1.1241-5.9397-3.0755-.4082-1.4181.1658-3.38774 1.6598-3.46025 1.6117.10566 1.6486 1.89565 1.5947 3.29215-.0199.5196-.0318.8331.0756 1.0631.1227.2617.3959.3878.6989.3228.6997-.1521 1.9985-1.6722 2.0077-3.4376.0135-2.63688-2.1424-4.49788-5.2433-4.52573-.0248-.00016-.049-.0003-.0741-.0003-3.71546.00002-7.48486 2.50873-8.45948 7.35843-.26233 2.2016.41958 5.2461 4.7114 5.2461.35368 0 .66518.0073.93768.0213h4.0284c-.0048-.0072-.0096-.0143-.0142-.0213.107.0089.2195.0162.3362.0213h.826c1.7533-.0783 3.7625-.6845 2.8892-2.7222-.012-.0281-.0236-.0555-.0348-.0823zm-9.40715 1.8697c-1.33084-2.2688-.85739-4.9366.81985-6.698-1.20358 2.3057-.5829 5.2342 1.428 6.698z" fill="#000" fill-rule="evenodd"/></svg>