<?xml version="1.0" encoding="iso-8859-1"?>
<!-- Generator: Adobe Illustrator 19.0.0, SVG Export Plug-In . SVG Version: 6.00 Build 0)  -->
<svg version="1.1" id="Layer_1" xmlns="http://www.w3.org/2000/svg" xmlns:xlink="http://www.w3.org/1999/xlink" x="0px" y="0px"
	 viewBox="0 0 511.999 511.999" style="enable-background:new 0 0 511.999 511.999;" xml:space="preserve">
<g>
	<g>
		<path d="M448.763,331.378L301.897,176.644c-6.596-6.95-17.578-7.237-24.527-0.639c-6.95,6.596-7.237,17.577-0.639,24.527
			l1.203,1.267c-58.645,77.317-30.627,205.8-51.371,206.163c-13.492,0.237-11.748-17.188-12.664-18.044
			c-0.385,0.363-4.843-61.502-4.882-62.029C187.893,40.337,196.596,48.3,184.154,27.634c-20.398-34.581-74.72-38.629-101.78-1.157
			c-8.999,14.269-9.133,24.849-9.361,39.378c-8.243,1.344-14.542,8.479-14.542,17.102c0,9.582,7.768,17.349,17.349,17.349h27.758
			c9.582,0,17.349-7.768,17.349-17.349c0-8.383-5.945-15.377-13.85-16.996c0.45-5.198,1.274-9.306,2.187-11.727
			c2.299-6.978,8.096-17.06,21.633-17.136c6.915-0.039,16.534,6.727,17.788,21.184c1.458,17.572,0.842,31.673,0.058,104.672h-15.48
			c-9.582,0-17.349,7.768-17.349,17.349c0,9.581,7.768,17.349,17.349,17.349h13.853c-1.152,17.285-0.787,12.039-1.839,26.601
			h-15.514c-0.307-9.311-7.934-16.771-17.32-16.771c-9.582,0-17.349,7.768-17.349,17.349v33.895c0,9.582,7.768,17.349,17.349,17.349
			c9.506,0,17.216-7.648,17.338-17.125h12.979c-3.448,47.361-5.951,80.832-9.492,128.172c-0.011-0.12,0.01,2.124-0.008,1.317
			c-1.06,16.796-2.502,46.563,6.363,63.662c7.518,20.241,20.072,35.531,42.216,47.421c86.167,46.264,161.757-49.968,171.469-64.583
			c25.481-41.021,53.004-67.521,69.048-80.983l1.24,1.306c3.411,3.594,7.994,5.406,12.586,5.406c4.288,0,8.586-1.581,11.941-4.767
			C455.072,349.308,455.359,338.328,448.763,331.378z"/>
	</g>
</g>
<g>
</g>
<g>
</g>
<g>
</g>
<g>
</g>
<g>
</g>
<g>
</g>
<g>
</g>
<g>
</g>
<g>
</g>
<g>
</g>
<g>
</g>
<g>
</g>
<g>
</g>
<g>
</g>
<g>
</g>
</svg>
